<svg id="Layer_1" data-name="Layer 1" xmlns="http://www.w3.org/2000/svg" viewBox="0 0 4000 4000"><defs><style>.cls-1{fill:#273138;}</style></defs><title>WFC scale</title><path class="cls-1" d="M3005.88,2014.68h-2.09L2745.13,1281.3c23.74-22.21,21.89-49.09,21.89-49.09a38.26,38.26,0,1,0-76.51,0,37.52,37.52,0,0,0,10.09,25.37l-2.32,6.57c-60.28,36.48-205.75-31.94-205.75-31.94-203.71-87.56-345.49-65-423.18-35.86a72.35,72.35,0,0,0-30.68-40.92,38.72,38.72,0,0,0-6.63-35.84l-32-83.69-32,83.69a38.72,38.72,0,0,0-6.63,35.84,72.38,72.38,0,0,0-30.86,41.49c-77.36-29.46-219.6-52.83-424.62,35.29,0,0-142.22,66.9-203.7,33.16l-3.19-9a37.47,37.47,0,0,0,8.91-24.11,38.26,38.26,0,1,0-76.51,0s-2,27.83,23.1,50.26L996.21,2014.68h-2.09c0,1.72.26,3.37.3,5.08l-.3.85.36.13c3.8,132.63,130.62,239.21,286.84,239.21s283-106.58,286.84-239.21l.36-.13-.3-.85c0-1.71.3-3.36.3-5.08h-2.09L1317.18,1308c38.39,5.41,93.82,1.75,174.19-19.87,168.79-45.42,285-44.62,382.4-5.43,78.84,49.53,82.06,106.81,82.06,106.81v244.8a63.57,63.57,0,0,0-21.4,47.8v783.72H1673.34v61.56h-65.48v61.57h-69.81v61.57H2462v-61.57h-69.81v-61.57h-65.48v-61.56H2065.57V1682.09a65,65,0,0,0-19.15-45.79,20.69,20.69,0,0,0-2.25-2v-244.8s3.28-58.37,84.32-108.22c96.6-37.68,211.94-38,378.52,6.84,81.56,21.94,137.44,25.39,175.89,19.64l-249.33,706.93h-2.09c0,1.72.26,3.37.3,5.08l-.3.85.36.13c3.8,132.63,130.61,239.21,286.84,239.21s283-106.58,286.84-239.21l.36-.13-.3-.85C3005.62,2018.05,3005.88,2016.4,3005.88,2014.68Zm-1735.83,0H1020.11L1270.05,1306Zm272.49,0h-250V1306Zm1164.87,0H2457.46L2707.41,1306Zm22.54,0V1306l249.94,708.67Z"/></svg>